<svg viewBox="0 0 100 138" fill="none" xmlns="http://www.w3.org/2000/svg">
    <path d="M35.1566 63.1561C35.1566 63.9479 34.5199 64.5795 33.7381 64.5795C33.2941 64.5795 32.9026 64.3769 32.6399 64.0554C32.1158 63.6389 30.5748 62.4394 30.0283 62.3118C29.633 62.2167 28.1233 63.8315 27.1439 64.6546C26.8875 65.0073 26.4747 65.2324 26.0032 65.2324C25.2164 65.2324 24.5797 64.5995 24.5797 63.819C24.5797 63.4763 24.7036 63.1648 24.9074 62.9197L24.8862 62.8884C24.8862 62.8884 28.3483 59.4849 29.4466 59.1535C30.546 58.8108 31.668 59.4962 31.668 59.4962C31.668 59.4962 33.9645 61.1973 34.6812 62.1079C34.9701 62.3643 35.1565 62.7383 35.1565 63.1561L35.1566 63.1561ZM41.0868 73.9131C40.3701 73.0138 38.0736 71.3114 38.0736 71.3114C38.0736 71.3114 36.9504 70.6273 35.8534 70.9599C34.7552 71.3027 31.2956 74.706 31.2956 74.706L31.3168 74.7373C31.1142 74.9862 30.9904 75.2852 30.9904 75.6279C30.9904 76.4196 31.627 77.05 32.4138 77.05C32.8841 77.05 33.2969 76.8261 33.552 76.4709C34.5314 75.6479 36.0399 74.0331 36.4364 74.1169C36.9805 74.2457 38.5227 75.454 39.0481 75.873C39.3107 76.1932 39.7022 76.3959 40.145 76.3959C40.9255 76.3959 41.5634 75.7629 41.5634 74.9737C41.5622 74.5534 41.3746 74.1782 41.0869 73.913L41.0868 73.9131ZM60.303 73.0013C59.5863 72.1019 57.2911 70.4008 57.2911 70.4008C57.2911 70.4008 56.1679 69.7154 55.0697 70.0481C53.9715 70.3821 50.5118 73.7955 50.5118 73.7955L50.5344 73.8167C50.3355 74.0644 50.2067 74.3734 50.2067 74.7161C50.2067 75.4991 50.8483 76.1382 51.6301 76.1382C52.1004 76.1382 52.5131 75.9043 52.7746 75.5616C53.7502 74.7261 55.2587 73.11 55.6527 73.2063C56.203 73.3339 57.739 74.5334 58.2643 74.9612C58.527 75.2702 58.9185 75.4853 59.3626 75.4853C60.1493 75.4853 60.7847 74.8436 60.7847 74.0631C60.7835 73.6328 60.5971 73.2576 60.3032 73.0012L60.303 73.0013ZM79.274 72.915C78.5573 72.0156 76.2621 70.3145 76.2621 70.3145C76.2621 70.3145 75.1388 69.6291 74.0406 69.963C72.9424 70.3058 69.4828 73.7091 69.4828 73.7091L69.5041 73.7316C69.3014 73.9756 69.1764 74.2883 69.1764 74.631C69.1764 75.4115 69.8143 76.0531 70.5985 76.0531C71.0714 76.0531 71.4816 75.818 71.7405 75.474C72.7187 74.6522 74.2271 73.025 74.6236 73.1187C75.169 73.2476 76.71 74.4596 77.2353 74.8749C77.498 75.1963 77.8895 75.3977 78.3335 75.3977C79.1165 75.3977 79.7532 74.7561 79.7532 73.9756C79.7494 73.5578 79.5618 73.1838 79.2741 72.9149L79.274 72.915ZM73.2775 60.8547C72.5658 59.9554 70.2655 58.2543 70.2655 58.2543C70.2655 58.2543 69.1423 57.5688 68.0466 57.9015C66.9534 58.2343 63.4849 61.6476 63.4849 61.6476L63.5062 61.6689C63.3086 61.9141 63.186 62.2255 63.186 62.5682C63.186 63.3487 63.8214 63.9904 64.6082 63.9904C65.0735 63.9904 65.485 63.7552 65.7464 63.4125C66.722 62.5782 68.2318 60.9622 68.6308 61.0572C69.1749 61.1848 70.7146 62.3843 71.2437 62.8121C71.5064 63.1236 71.8916 63.3362 72.3369 63.3362C73.1224 63.3362 73.7591 62.6933 73.7591 61.9128C73.7629 61.4863 73.5752 61.111 73.2775 60.8546L73.2775 60.8547ZM53.3997 58.6083C52.683 57.7089 50.3865 56.0078 50.3865 56.0078C50.3865 56.0078 49.2633 55.3236 48.1663 55.6551C47.0681 55.9978 43.6085 59.4012 43.6085 59.4012L43.6297 59.4237C43.4271 59.6689 43.3033 59.9803 43.3033 60.3218C43.3033 61.1048 43.9387 61.7452 44.7255 61.7452C45.1958 61.7452 45.6085 61.51 45.8637 61.1673C46.8431 60.3443 48.3515 58.727 48.748 58.8133C49.2934 58.9409 50.8344 60.1504 51.3597 60.5682C51.6224 60.8884 52.0139 61.0923 52.4567 61.0923C53.2409 61.0923 53.8801 60.4494 53.8801 59.6689C53.8813 59.2498 53.6925 58.8746 53.3998 58.6082L53.3997 58.6083ZM26.3598 74.6625C25.6431 73.7619 23.3466 72.0608 23.3466 72.0608C23.3466 72.0608 22.2234 71.3766 21.1252 71.7093C20.027 72.052 16.5674 75.4554 16.5674 75.4554L16.5886 75.4867C16.3898 75.7318 16.2622 76.032 16.2622 76.3747C16.2622 77.1665 16.9039 77.7969 17.6844 77.7969C18.1547 77.7969 18.5674 77.573 18.8288 77.2178C19.802 76.3947 21.3129 74.7799 21.7082 74.8625C22.2535 74.9926 23.7933 76.2033 24.3174 76.6186C24.58 76.9401 24.9716 77.1427 25.4156 77.1427C26.2023 77.1427 26.839 76.5123 26.839 75.7205C26.8415 75.304 26.6551 74.9288 26.3599 74.6623L26.3598 74.6625ZM32.5738 26.8748C31.1729 26.8748 30.0321 28.0093 30.0321 29.4102C30.0321 30.8124 31.1729 31.9469 32.5738 31.9469C33.9709 31.9469 35.1092 30.8124 35.1092 29.4102C35.1092 28.0093 33.9697 26.8748 32.5738 26.8748ZM32.0272 29.7842C31.433 29.7842 30.9465 29.3039 30.9465 28.7047C30.9465 28.1043 31.433 27.624 32.0272 27.624C32.6263 27.624 33.1079 28.1068 33.1079 28.7047C33.1091 29.3039 32.6263 29.7842 32.0272 29.7842ZM67.679 26.8748C66.2768 26.8748 65.1423 28.0093 65.1423 29.4102C65.1423 30.8124 66.2768 31.9469 67.679 31.9469C69.0799 31.9469 70.2144 30.8124 70.2144 29.4102C70.2144 28.0093 69.0799 26.8748 67.679 26.8748ZM66.9723 29.7842C66.3719 29.7842 65.8916 29.3039 65.8916 28.7047C65.8916 28.1043 66.3719 27.624 66.9723 27.624C67.5652 27.624 68.053 28.1068 68.053 28.7047C68.053 29.3039 67.5652 29.7842 66.9723 29.7842ZM86.5187 45.6258C88.6375 45.9247 90.7527 46.2674 92.8616 46.6202C94.0599 46.8228 95.2469 47.0605 96.4339 47.3156C97.6271 47.5395 98.8041 47.8297 100 48.0861C97.7448 47.1442 95.3897 46.4588 93.0192 45.8809C90.6914 45.2931 88.3297 44.8865 85.9621 44.5326C84.8789 42.435 83.8208 40.4551 82.8214 38.635C83.5706 38.5925 84.3236 38.54 85.0728 38.4849L90.7401 38.1234C92.6251 38.0159 94.5125 37.9083 96.4251 37.8545C92.6527 37.1903 88.8039 37.2666 85.0113 37.4905C84.112 37.5543 83.2126 37.6394 82.3146 37.7257C81.5428 36.3348 80.8099 35.0402 80.1357 33.872C82.5685 32.6312 85.0201 31.4742 87.5994 30.4474C84.8013 30.7138 82.1321 31.7632 79.6381 33.0053C76.0469 26.7776 73.2688 22.132 70.7747 18.8035C73.554 5.63884 68.432 0 68.432 0C64.3907 4.67662 62.5831 8.78583 61.8191 11.9114C56.5645 10.917 44.0101 10.8957 38.0537 11.9539C37.2669 8.83937 35.4482 4.79311 31.4769 0.202631C31.4769 0.202631 26.2925 5.91768 29.1867 19.2524C26.9865 22.3994 24.2197 26.7871 20.3346 32.8022C20.3183 32.8335 20.3033 32.8573 20.2858 32.8873C17.8142 31.6578 15.1689 30.6408 12.3969 30.3731C14.9335 31.3675 17.3476 32.502 19.744 33.734C18.946 34.9748 18.138 36.2694 17.325 37.6092C16.5482 37.5354 15.7677 37.4716 14.9872 37.4166C11.1947 37.1814 7.34612 37.1051 3.57856 37.7693C5.48354 37.8218 7.37109 37.9407 9.26095 38.0382L14.9235 38.4122C15.5389 38.4435 16.1593 38.4885 16.7747 38.531C15.6189 40.4673 14.4582 42.4798 13.3187 44.5663C11.1898 44.8878 9.06953 45.273 6.97698 45.7971C5.79372 46.0848 4.61171 46.4062 3.44478 46.7602C2.28278 47.1455 1.12328 47.5307 0 48.0123C1.19453 47.7434 2.37026 47.4557 3.56966 47.2318C4.75292 46.9741 5.94496 46.749 7.13933 46.5464C8.99678 46.2262 10.8643 45.926 12.7317 45.6583C6.48643 57.3122 1.09671 70.9245 1.09671 83.6316C1.17676 87.1315 1.45569 89.957 1.85595 92.2785C1.87221 94.4186 2.10736 104.736 5.15312 106.738L6.10999 107.358L5.98241 106.224C5.92737 105.773 5.8961 105.259 5.88109 104.736C6.35266 106.342 7.00431 107.648 7.8974 108.236L8.813 108.837C10.1438 115.932 13.8662 126.773 22.3629 132.841C22.5192 132.961 22.6993 133.056 22.8669 133.165C21.84 133.614 20.7168 134.213 19.8112 134.981L18.9857 135.679L20.0514 135.86C21.4372 136.083 22.3516 136.159 23.0433 136.169L22.3954 136.971L23.4748 136.94C24.2241 136.919 24.7382 136.855 25.231 136.79C26.4393 136.64 27.5863 136.491 32.3745 137.025C35.7242 136.939 37.5064 136.662 38.4696 136.339C42.1193 136.413 45.7319 136.287 48.7864 136.287H49.114C49.3067 135.978 49.4993 135.697 49.6707 135.506C49.7232 135.304 49.8208 135.249 49.9433 135.291C50.0659 135.239 50.1672 135.304 50.221 135.506C50.3924 135.698 50.585 135.978 50.7776 136.297C54.0361 136.319 57.4181 136.385 60.763 136.266C61.8211 136.513 63.5122 136.706 66.2263 136.781C71.0156 136.244 72.1614 136.386 73.3698 136.546C73.8676 136.61 74.3755 136.673 75.126 136.696L76.2054 136.727L75.5625 135.925C76.2492 135.913 77.1635 135.839 78.5519 135.604L79.6151 135.433L78.7921 134.738C78.0328 134.083 77.1122 133.56 76.2242 133.131C76.7795 132.852 77.3211 132.566 77.8452 132.233C87.754 126.099 90.1844 115.269 91.5539 108.226L91.5176 108.548L92.4758 107.917C93.3688 107.326 94.023 106.024 94.4971 104.417C94.4745 104.953 94.4458 105.456 94.397 105.915L94.2619 107.049L95.22 106.419C98.232 104.439 98.4957 94.3021 98.5172 92.0245C98.7836 89.9131 98.8762 87.1551 98.7048 83.4288C98.137 71.0871 92.1742 56.7892 86.5181 45.6284L86.5187 45.6258ZM4.80833 104.659C3.9578 102.989 3.47121 100.09 3.2023 97.3619C3.73263 98.7315 4.30926 99.7384 4.88214 100.509C4.81835 101.61 4.75956 103.194 4.80834 104.659L4.80833 104.659ZM7.5526 106.158C7.03351 105.142 6.65327 103.665 6.37558 102.059C6.83463 102.423 7.25365 102.67 7.58385 102.86C7.54257 103.858 7.51506 105.033 7.55258 106.157L7.5526 106.158ZM67.4312 24.2102C70.4819 24.2102 72.9647 26.6931 72.9647 29.7437C72.9647 32.7932 70.4806 35.2772 67.4312 35.2772C64.3818 35.2772 61.899 32.7931 61.899 29.7437C61.899 26.6918 64.3819 24.2102 67.4312 24.2102V24.2102ZM52.4228 25.9539C52.8381 25.9226 53.2459 25.8801 53.6849 25.8901C54.189 25.9113 54.5692 26.114 54.9482 26.2966C55.6974 26.6818 56.4042 27.1221 57.0733 27.6237C56.3016 27.3035 55.5536 26.9507 54.7931 26.6505C54.4079 26.523 54.0163 26.3391 53.6811 26.3629C53.2946 26.3729 52.8794 26.4179 52.4716 26.4492C50.823 26.5993 49.1744 26.7694 47.5071 26.7919C49.1244 26.3816 50.763 26.1252 52.4229 25.9538L52.4228 25.9539ZM50.3353 33.1147C50.0838 33.5312 48.9168 33.6162 48.0876 32.7819C47.2583 31.9464 44.4263 30.7906 44.4263 30.7906C44.4263 30.7906 42.5964 29.6249 44.34 29.2922C44.34 29.2922 52.5754 28.628 54.9882 29.2922C57.4022 29.9563 54.7405 30.7906 54.7405 30.7906C54.7417 30.7906 50.5804 32.6956 50.3351 33.1146L50.3353 33.1147ZM50.6654 38.7746C50.1364 38.9898 49.6773 39.2036 49.167 39.3963C48.6617 39.5889 48.1601 39.7703 47.5884 39.8553C47.9787 39.4276 48.4715 39.1486 48.9894 38.936C49.252 38.8409 49.5197 38.7546 49.8036 38.7221C50.0888 38.6883 50.3878 38.667 50.6654 38.7746V38.7746ZM46.359 26.0615C46.9043 25.9639 47.451 25.8801 48.0013 25.8463C48.5529 25.815 49.1145 25.7825 49.6661 25.8776C48.5854 26.1015 47.531 26.3579 46.4503 26.5505C45.3746 26.7319 44.2939 26.9145 43.1806 26.9583C44.2075 26.5318 45.2783 26.2641 46.359 26.0615L46.359 26.0615ZM32.3224 24.2103C35.3719 24.2103 37.8559 26.6931 37.8559 29.7438C37.8559 32.7932 35.3718 35.2773 32.3224 35.2773C29.2717 35.2773 26.7889 32.7932 26.7889 29.7438C26.7889 26.6918 29.2718 24.2103 32.3224 24.2103V24.2103ZM24.2308 135.107C23.5829 135.17 22.8824 135.224 21.4115 135.042C22.2458 134.518 23.1664 134.099 23.9631 133.779C24.3984 134.003 24.8512 134.208 25.3277 134.388C24.9487 134.623 24.5735 134.861 24.2308 135.107V135.107ZM32.4198 136.027C28.0208 135.534 26.6298 135.61 25.4578 135.748V135.479C25.8093 135.256 26.1795 135.041 26.5548 134.825C28.4422 135.415 30.5561 135.789 32.7674 136.013C32.6486 136.018 32.541 136.027 32.4197 136.027L32.4198 136.027ZM73.15 135.504C72.1907 135.385 71.085 135.311 68.322 135.557C69.6616 135.333 70.9587 135.042 72.2182 134.668C72.5384 134.861 72.8487 135.042 73.1488 135.235L73.1476 135.504H73.15ZM77.1939 134.795C75.723 134.976 75.0213 134.925 74.3746 134.86C74.0957 134.657 73.7905 134.465 73.4865 134.269C74.0069 134.088 74.5147 133.897 75.0138 133.683C75.7167 133.972 76.4872 134.348 77.1939 134.795V134.795ZM49.7426 132.024C27.487 132.024 9.44781 113.306 9.44781 90.2084C9.44781 67.1135 27.487 48.3927 49.7426 48.3927C71.9983 48.3927 90.0438 67.111 90.0438 90.2084C90.0426 113.305 71.9986 132.024 49.7426 132.024ZM92.8264 105.846C92.8577 104.808 92.8414 103.717 92.8039 102.774C93.1841 101.77 93.6694 101.063 94.206 100.454C93.9184 102.55 93.4781 104.56 92.8264 105.846V105.846ZM95.5719 104.349C95.637 102.413 95.5144 100.271 95.4431 99.2957C95.4494 99.2544 95.4494 99.2106 95.4556 99.1793C96.0647 98.5589 96.6701 97.8735 97.193 96.8578C96.9341 99.6396 96.4438 102.637 95.5719 104.349V104.349Z" fill="black"/>
</svg>
